<svg width="96" height="21" viewBox="0 0 96 21" fill="none" xmlns="http://www.w3.org/2000/svg">
<path d="M1.07812 11.2599V9.75994L7.07812 7.1179V8.84375L2.97017 10.4929L3.02557 10.4034V10.6165L2.97017 10.527L7.07812 12.1761V13.902L1.07812 11.2599ZM11.8636 14.1278C11.1903 14.1278 10.6108 13.9915 10.125 13.7188C9.64205 13.4432 9.26989 13.054 9.00852 12.5511C8.74716 12.0455 8.61648 11.4474 8.61648 10.7571C8.61648 10.0838 8.74716 9.4929 9.00852 8.98438C9.26989 8.47585 9.63778 8.07955 10.1122 7.79545C10.5895 7.51136 11.1491 7.36932 11.7912 7.36932C12.223 7.36932 12.625 7.43892 12.9972 7.57812C13.3722 7.71449 13.6989 7.92045 13.9773 8.19602C14.2585 8.47159 14.4773 8.81818 14.6335 9.2358C14.7898 9.65057 14.8679 10.1364 14.8679 10.6932V11.1918H9.34091V10.0668H13.1591C13.1591 9.8054 13.1023 9.57386 12.9886 9.37216C12.875 9.17045 12.7173 9.01278 12.5156 8.89915C12.3168 8.78267 12.0852 8.72443 11.821 8.72443C11.5455 8.72443 11.3011 8.78835 11.0881 8.91619C10.8778 9.04119 10.7131 9.21023 10.5938 9.4233C10.4744 9.63352 10.4134 9.8679 10.4105 10.1264V11.196C10.4105 11.5199 10.4702 11.7997 10.5895 12.0355C10.7116 12.2713 10.8835 12.4531 11.1051 12.581C11.3267 12.7088 11.5895 12.7727 11.8935 12.7727C12.0952 12.7727 12.2798 12.7443 12.4474 12.6875C12.6151 12.6307 12.7585 12.5455 12.8778 12.4318C12.9972 12.3182 13.0881 12.179 13.1506 12.0142L14.8295 12.125C14.7443 12.5284 14.5696 12.8807 14.3054 13.1818C14.044 13.4801 13.706 13.7131 13.2912 13.8807C12.8793 14.0455 12.4034 14.1278 11.8636 14.1278ZM19.0099 14.1278C18.3395 14.1278 17.7628 13.9858 17.2798 13.7017C16.7997 13.4148 16.4304 13.017 16.1719 12.5085C15.9162 12 15.7884 11.4148 15.7884 10.7528C15.7884 10.0824 15.9176 9.49432 16.1761 8.98864C16.4375 8.48011 16.8082 8.08381 17.2884 7.79972C17.7685 7.51278 18.3395 7.36932 19.0014 7.36932C19.5724 7.36932 20.0724 7.47301 20.5014 7.6804C20.9304 7.88778 21.2699 8.17898 21.5199 8.55398C21.7699 8.92898 21.9077 9.36932 21.9332 9.875H20.2202C20.1719 9.5483 20.044 9.28551 19.8366 9.08665C19.6321 8.88494 19.3636 8.78409 19.0312 8.78409C18.75 8.78409 18.5043 8.8608 18.294 9.0142C18.0866 9.16477 17.9247 9.38494 17.8082 9.67472C17.6918 9.96449 17.6335 10.3153 17.6335 10.7273C17.6335 11.1449 17.6903 11.5 17.804 11.7926C17.9205 12.0852 18.0838 12.3082 18.294 12.4616C18.5043 12.6151 18.75 12.6918 19.0312 12.6918C19.2386 12.6918 19.4247 12.6491 19.5895 12.5639C19.7571 12.4787 19.8949 12.3551 20.0028 12.1932C20.1136 12.0284 20.1861 11.831 20.2202 11.6009H21.9332C21.9048 12.1009 21.7685 12.5412 21.5241 12.9219C21.2827 13.2997 20.9489 13.5952 20.5227 13.8082C20.0966 14.0213 19.5923 14.1278 19.0099 14.1278ZM24.9109 10.2159V14H23.0955V5.27273H24.8597V8.60938H24.9364C25.0842 8.22301 25.3228 7.92045 25.6523 7.7017C25.9819 7.48011 26.3952 7.36932 26.8924 7.36932C27.3469 7.36932 27.7433 7.46875 28.0813 7.66761C28.4222 7.86364 28.6864 8.14631 28.8739 8.51562C29.0643 8.8821 29.158 9.32102 29.1552 9.83239V14H27.3398V10.1562C27.3427 9.75284 27.2404 9.43892 27.033 9.21449C26.8285 8.99006 26.5415 8.87784 26.1722 8.87784C25.9251 8.87784 25.7063 8.9304 25.516 9.03551C25.3285 9.14062 25.1808 9.29403 25.0728 9.49574C24.9677 9.6946 24.9137 9.93466 24.9109 10.2159ZM33.5412 14.1278C32.8793 14.1278 32.3068 13.9872 31.8239 13.706C31.3438 13.4219 30.973 13.027 30.7116 12.5213C30.4503 12.0128 30.3196 11.4233 30.3196 10.7528C30.3196 10.0767 30.4503 9.4858 30.7116 8.98011C30.973 8.47159 31.3438 8.0767 31.8239 7.79545C32.3068 7.51136 32.8793 7.36932 33.5412 7.36932C34.2031 7.36932 34.7741 7.51136 35.2543 7.79545C35.7372 8.0767 36.1094 8.47159 36.3707 8.98011C36.6321 9.4858 36.7628 10.0767 36.7628 10.7528C36.7628 11.4233 36.6321 12.0128 36.3707 12.5213C36.1094 13.027 35.7372 13.4219 35.2543 13.706C34.7741 13.9872 34.2031 14.1278 33.5412 14.1278ZM33.5497 12.7216C33.8509 12.7216 34.1023 12.6364 34.304 12.4659C34.5057 12.2926 34.6577 12.0568 34.7599 11.7585C34.8651 11.4602 34.9176 11.1207 34.9176 10.7401C34.9176 10.3594 34.8651 10.0199 34.7599 9.72159C34.6577 9.4233 34.5057 9.1875 34.304 9.0142C34.1023 8.84091 33.8509 8.75426 33.5497 8.75426C33.2457 8.75426 32.9901 8.84091 32.7827 9.0142C32.5781 9.1875 32.4233 9.4233 32.3182 9.72159C32.2159 10.0199 32.1648 10.3594 32.1648 10.7401C32.1648 11.1207 32.2159 11.4602 32.3182 11.7585C32.4233 12.0568 32.5781 12.2926 32.7827 12.4659C32.9901 12.6364 33.2457 12.7216 33.5497 12.7216ZM41.7443 4.86364L38.9318 15.3125H37.3679L40.1804 4.86364H41.7443ZM48.9727 11.2599L42.9727 13.902V12.1761L47.0806 10.527L47.0252 10.6165V10.4034L47.0806 10.4929L42.9727 8.84375V7.1179L48.9727 9.75994V11.2599ZM55.3679 10.2159V14H53.5526V7.45455H55.2827V8.60938H55.3594C55.5043 8.22869 55.7472 7.92756 56.0881 7.70597C56.429 7.48153 56.8423 7.36932 57.3281 7.36932C57.7827 7.36932 58.179 7.46875 58.517 7.66761C58.8551 7.86648 59.1179 8.15057 59.3054 8.51989C59.4929 8.88636 59.5866 9.32386 59.5866 9.83239V14H57.7713V10.1562C57.7741 9.75568 57.6719 9.44318 57.4645 9.21875C57.2571 8.99148 56.9716 8.87784 56.608 8.87784C56.3636 8.87784 56.1477 8.9304 55.9602 9.03551C55.7756 9.14062 55.6307 9.29403 55.5256 9.49574C55.4233 9.6946 55.3707 9.93466 55.3679 10.2159Z" fill="#334155"/>
<path d="M75.9119 7.45455V8.47727H72.3366V7.45455H75.9119ZM73.2955 5.88636H74.5696V12.0781C74.5696 12.3253 74.6065 12.5114 74.6804 12.6364C74.7543 12.7585 74.8494 12.8423 74.9659 12.8878C75.0852 12.9304 75.2145 12.9517 75.3537 12.9517C75.456 12.9517 75.5455 12.9446 75.6222 12.9304C75.6989 12.9162 75.7585 12.9048 75.8011 12.8963L76.0312 13.9489C75.9574 13.9773 75.8523 14.0057 75.7159 14.0341C75.5795 14.0653 75.4091 14.0824 75.2045 14.0852C74.8693 14.0909 74.5568 14.0312 74.267 13.9062C73.9773 13.7812 73.7429 13.5881 73.5639 13.3267C73.3849 13.0653 73.2955 12.7372 73.2955 12.3423V5.88636ZM80.0721 14.1321C79.4272 14.1321 78.8718 13.9943 78.4059 13.7188C77.9428 13.4403 77.5849 13.0497 77.332 12.5469C77.082 12.0412 76.957 11.4489 76.957 10.7699C76.957 10.0994 77.082 9.50852 77.332 8.99716C77.5849 8.4858 77.9371 8.08665 78.3888 7.79972C78.8434 7.51278 79.3746 7.36932 79.9826 7.36932C80.3519 7.36932 80.7099 7.4304 81.0565 7.55256C81.4031 7.67472 81.7141 7.86648 81.9897 8.12784C82.2653 8.3892 82.4826 8.72869 82.6417 9.14631C82.8008 9.56108 82.8803 10.0653 82.8803 10.6591V11.1108H77.6772V10.1562H81.6317C81.6317 9.82102 81.5636 9.52415 81.4272 9.26562C81.2908 9.00426 81.0991 8.7983 80.8519 8.64773C80.6076 8.49716 80.3207 8.42188 79.9911 8.42188C79.6332 8.42188 79.3207 8.50994 79.0536 8.68608C78.7894 8.85937 78.5849 9.08665 78.44 9.3679C78.2979 9.64631 78.2269 9.94886 78.2269 10.2756V11.0213C78.2269 11.4588 78.3036 11.831 78.457 12.1378C78.6133 12.4446 78.8306 12.679 79.109 12.8409C79.3874 13 79.7127 13.0795 80.0849 13.0795C80.3263 13.0795 80.5465 13.0455 80.7454 12.9773C80.9442 12.9062 81.1161 12.8011 81.261 12.6619C81.4059 12.5227 81.5167 12.3509 81.5934 12.1463L82.7994 12.3636C82.7028 12.7187 82.5295 13.0298 82.2795 13.2969C82.0323 13.5611 81.7212 13.767 81.3462 13.9148C80.9741 14.0597 80.5494 14.1321 80.0721 14.1321ZM89.1989 9.05256L88.044 9.2571C87.9957 9.10937 87.919 8.96875 87.8139 8.83523C87.7116 8.7017 87.5724 8.59233 87.3963 8.5071C87.2202 8.42187 87 8.37926 86.7358 8.37926C86.375 8.37926 86.0739 8.46023 85.8324 8.62216C85.5909 8.78125 85.4702 8.98722 85.4702 9.24006C85.4702 9.45881 85.5511 9.63494 85.7131 9.76847C85.875 9.90199 86.1364 10.0114 86.4972 10.0966L87.5369 10.3352C88.1392 10.4744 88.5881 10.6889 88.8835 10.9787C89.179 11.2685 89.3267 11.6449 89.3267 12.108C89.3267 12.5 89.2131 12.8494 88.9858 13.1562C88.7614 13.4602 88.4474 13.6989 88.044 13.8722C87.6435 14.0455 87.179 14.1321 86.6506 14.1321C85.9176 14.1321 85.3196 13.9759 84.8565 13.6634C84.3935 13.348 84.1094 12.9006 84.0043 12.321L85.2358 12.1335C85.3125 12.4545 85.4702 12.6974 85.7088 12.8622C85.9474 13.0241 86.2585 13.1051 86.642 13.1051C87.0597 13.1051 87.3935 13.0185 87.6435 12.8452C87.8935 12.669 88.0185 12.4545 88.0185 12.2017C88.0185 11.9972 87.9418 11.8253 87.7884 11.6861C87.6378 11.5469 87.4062 11.4418 87.0938 11.3707L85.9858 11.1278C85.375 10.9886 84.9233 10.767 84.6307 10.4631C84.3409 10.1591 84.196 9.77415 84.196 9.30824C84.196 8.92187 84.304 8.58381 84.5199 8.29403C84.7358 8.00426 85.0341 7.77841 85.4148 7.61648C85.7955 7.4517 86.2315 7.36932 86.723 7.36932C87.4304 7.36932 87.9872 7.52273 88.3935 7.82955C88.7997 8.13352 89.0682 8.54119 89.1989 9.05256Z" fill="#334155"/>
<path fill-rule="evenodd" clip-rule="evenodd" d="M56 21C65.6251 11.9591 66.3858 11.6728 71.2591 15.2591C67.6728 10.3829 67.9591 9.62512 77 0C67.3749 9.0409 66.6142 9.32723 61.7409 5.74095C65.3272 10.6171 65.0409 11.3749 56 21Z" fill="#334155"/>
</svg>
